<?xml version="1.0" encoding="utf-8"?>
<!-- Generator: Adobe Illustrator 25.0.0, SVG Export Plug-In . SVG Version: 6.00 Build 0)  -->
<svg version="1.1" id="レイヤー_1" xmlns="http://www.w3.org/2000/svg" xmlns:xlink="http://www.w3.org/1999/xlink" x="0px"
	 y="0px" viewBox="0 0 62.9 144" style="enable-background:new 0 0 62.9 144;" xml:space="preserve">
<style type="text/css">
	.st0{fill:none;}
	.st1{fill:#E83828;}
	.st2{fill:#FFFFFF;}
</style>
<g>
	<path class="st0" d="M28.7,0.7c0,0.5,0.4,0.5,0.4,1c0,0.5-0.4,0.5-0.4,1c0,0.5,0.5,0.5,0.5,1c0,0.5-0.3,0.5-0.3,1c0,0.5,0,0.5,0,1
		c0,0.5-0.3,0.5-0.3,1c0,0.5,0.6,0.5,0.6,1c0,0.5-0.4,0.5-0.4,1c0,0.5,0.1,0.5,0.1,1c0,0.5-0.1,0.5-0.1,1c0,0.5-0.3,0.5-0.3,1
		c0,0.5,0,0.5,0,1c0,0.5,0.4,0.5,0.4,1c0,0.5-0.1,0.5-0.1,1c0,0.5,0.3,0.5,0.3,1c0,0.5-0.2,0.5-0.2,1c0,0.5-0.2,0.5-0.2,1
		c0,0.5,0.2,0.5,0.2,1c0,0.5,0.1,0.5,0.1,1c0,0.5-0.3,0.5-0.3,1c0,0.5,0.1,0.5,0.1,1c0,0.5,0.2,0.5,0.2,1c0,0.5,0.1,0.5,0.1,1
		c0,0.5-0.4,0.5-0.4,1c0,0.5,0,0.5,0,1c0,0.5,0,0.5,0,1c0,0.5-0.1,0.5-0.1,1c0,0.5,0.2,0.5,0.2,1c0,0.5,0.1,0.5,0.1,1
		c0,0.5,0.2,0.5,0.2,1c0,0.5-0.3,0.5-0.3,1c0,0.5,0.2,0.5,0.2,1c0,0.5-0.3,0.5-0.3,1c0,0.5,0.3,0.5,0.3,1c0,0.5-0.4,0.5-0.4,1
		c0,0.5,0.1,0.5,0.1,1c0,0.5,0,0.5,0,1c0,0.5,0.2,0.5,0.2,1c0,0.5-0.2,0.5-0.2,1c0,0.5,0.1,0.5,0.1,1c0,0.5,0.3,0.5,0.3,1
		c0,0.5-0.1,0.5-0.1,1c0,0.5-0.4,0.5-0.4,1c0,0.5,0.2,0.5,0.2,1c0,0.5-0.2,0.5-0.2,1c0,0.5,0.4,0.5,0.4,1c0,0.5-0.4,0.5-0.4,1
		c0,0.5-0.1,0.5-0.1,1c0,0.5,0.4,0.5,0.4,1c0,0.5,0,0.5,0,1c0,0.5,0.1,0.5,0.1,1c0,0.5-0.5,0.5-0.5,1c0,0.5,0.3,0.5,0.3,1
		c0,0.5-0.1,0.5-0.1,1c0,0.5-0.2,0.5-0.2,1c0,0.5,0.4,0.5,0.4,1c0,0.5-0.1,0.5-0.1,1c0,0.5,0,0.5,0,1c0,0.5,0,0.5,0,1
		c0,0.5,0,0.5,0,1c0,0.5,0,0.5,0,1c0,0.5,0,0.5,0,1c0,0.5,0.1,0.5,0.1,1c0,0.5-0.2,0.5-0.2,1c0,0.5,0.1,0.5,0.1,1
		c0,0.5-0.4,0.5-0.4,1c0,0.5,0.1,0.5,0.1,1c0,0.5,0.5,0.5,0.5,1c0,0.5,0,0.5,0,1c0,0.5-0.5,0.5-0.5,1c0,0.5,0.4,0.5,0.4,1
		c0,0.5,0,0.5,0,1c0,0.5-0.3,0.5-0.3,1c0,0.5-0.3,0.5-0.3,1c0,0.5,0.4,0.5,0.4,1c0,0.5-0.2,0.5-0.2,1c0,0.5,0,0.5,0,1
		c0,0.5,0.4,0.5,0.4,1c0,0.5-0.3,0.5-0.3,1c0,0.5,0.3,0.5,0.3,1c0,0.5-0.4,0.5-0.4,1c0,0.5,0.3,0.5,0.3,1c0,0.5-0.4,0.5-0.4,1
		c0,0.5,0,0.5,0,1c0,0.5,0.5,0.5,0.5,1c0,0.5-0.4,0.5-0.4,1c0,0.5-0.1,0.5-0.1,1c0,0.5,0.1,0.5,0.1,1c0,0.5,0.3,0.5,0.3,1
		c0,0.5-0.3,0.5-0.3,1c0,0.5,0.2,0.5,0.2,1c0,0.5-0.1,0.5-0.1,1c0,0.5,0.1,0.5,0.1,1c0,0.5,0,0.5,0,1c0,0.5,0.1,0.5,0.1,1
		c0,0.5-0.3,0.5-0.3,1c0,0.5,0.2,0.5,0.2,1c0,0.5,0.1,0.5,0.1,1c0,0.5-0.5,0.5-0.5,1c0,0.5,0.1,0.5,0.1,1c0,0.5,0.4,0.5,0.4,1
		c0,0.5-0.5,0.5-0.5,1c0,0.5-0.1,0.5-0.1,1c0,0.5,0.2,0.5,0.2,1"/>
</g>
<g>
	<g>
		<g>
			<path class="st1" d="M24.3,44.9c0,0.5-0.7,0.5-0.7,0.9c0,0.5,0.5,0.5,0.4,1c0,0.5-0.3,0.4-0.4,0.9c-0.3-0.2-0.3,0-0.7,0
				c-0.3-0.1-0.6-0.6-0.9-0.6c-0.3,0-0.7,0-1,0c-0.3,0-0.5,0.8-0.8,0.9c-0.3,0.1-0.7-0.2-1-0.1c-0.3,0.1-0.7,0.1-1,0.2
				c-0.3,0.1-0.6,0.3-0.9,0.4c-0.3,0.2-0.4,0.6-0.7,0.8c-0.3,0.2-0.5,0.5-0.7,0.7c-0.3,0.2-0.5,0.3-0.8,0.6
				c-0.2,0.2-0.4,0.5-0.6,0.8c-0.2,0.2-0.9,0.1-1.1,0.4c-0.2,0.3-0.5,0.5-0.6,0.8c-0.2,0.3-0.1,0.7-0.2,1c-0.1,0.3-0.2,0.6-0.3,1
				c-0.1,0.3,0,0.7,0,1c-0.1,0.3-0.1,0.6-0.1,1c0,0.3,0.1,0.6,0.1,1c0,0.3,0,0.8,0,1.1c-0.3-0.1-0.7-0.6-1.1-0.6
				c-0.3,0-0.7,0.2-1,0.2c-0.3,0-0.6,0.4-0.9,0.5c-0.3,0.1-0.8-0.4-1.1-0.3c-0.3,0.1-0.3,0.8-0.6,1c-0.3,0.2-1-0.3-1.3-0.1
				c-0.3,0.2-0.3,0.7-0.6,0.9c-0.2,0.2-0.2,0.6-0.4,0.9c-0.2,0.3-0.8,0.3-0.9,0.6c-0.1,0.3-0.3,0.6-0.4,1c-0.1,0.3,0.5,0.8,0.4,1.1
				c-0.1,0.3,0,0.6,0,0.9c0,0.3-0.7,0.6-0.7,1c0,0.3,0.5,0.6,0.6,0.9c0.1,0.3,0.1,0.6,0.2,0.9c0.1,0.3-0.2,0.7-0.1,1
				c0.1,0.3,0.7,0.5,0.8,0.8c0.1,0.3-0.5,0.8-0.5,1.1c0.1,0.3,0.5,0.6,0.6,0.9c0.1,0.3,0,0.7,0.1,1c0,0.3-0.2,0.7-0.1,1
				c0,0.3,0,0.6,0,1c0,0.3,0.3,0.6,0.3,1c0,0.3-0.3,0.6-0.4,1c0,0.3,0,0.6,0,1c0,0.3,0.5,0.7,0.4,1C5.5,78.8,5,79,5,79.4
				c0,0.3,0.1,0.7,0.1,1c0,0.3-0.4,0.6-0.4,0.9c-0.1,0.3,0.5,0.7,0.5,1.1C5,82.7,4.4,83,4.3,83.3c-0.1,0.3,0,0.7-0.1,1
				c-0.1,0.3-0.3,0.6-0.4,0.9c-0.1,0.3,0,0.7-0.1,1c-0.1,0.3-0.2,0.6-0.2,1c-0.1,0.3-0.2,0.6-0.3,1c-0.1,0.3,0.4,0.8,0.4,1.1
				c-0.1,0.3-0.7,0.6-0.7,0.9c-0.1,0.3,0.6,0.8,0.5,1.1c-0.1,0.3-0.5,0.6-0.5,0.9c-0.1,0.3-0.2,0.6-0.2,1c0,0.3-0.5,0.6-0.5,0.9
				c0,0.3,0.7,0.8,0.7,1.1c0,0.3-0.6,0.6-0.6,0.9c0,0.3,0.1,0.7,0.1,1c0,0.3-0.1,0.7-0.1,1c0,0.3-0.4,0.7-0.4,1c0,0.3,0,0.7,0,1
				c0,0.3,0.6,0.7,0.6,1c0,0.3-0.1,0.7-0.1,1c0,0.3,0.4,0.6,0.4,1c0,0.3-0.2,0.7-0.2,1c0,0.3-0.2,0.7-0.2,1c0,0.3,0.4,0.6,0.4,0.9
				c0,0.3,0.2,0.6,0.2,1c0.1,0.3-0.3,0.7-0.2,1.1c0.1,0.3,0.3,0.6,0.4,0.9c0.1,0.3,0.4,0.6,0.5,0.9c0.1,0.3,0.3,0.6,0.4,0.9
				c0.1,0.3-0.3,0.8-0.2,1.1c0.1,0.3,0.2,0.6,0.3,0.9c0.1,0.3,0.2,0.6,0.4,0.9c0.1,0.3,0.1,0.7,0.3,1c0.1,0.3,0.5,0.5,0.7,0.8
				c0.1,0.3,0.4,0.5,0.6,0.8c0.2,0.3,0.6,0.4,0.8,0.7c0.2,0.3-0.1,0.8-0.1,1.1c0,0.3,0.2,0.8,0,1.1c-0.2,0.3-0.7,0.3-1,0.4
				c-0.3,0.1-0.5,0.6-0.8,0.7c-0.3,0.1-0.8-0.5-1.1-0.4c-0.3,0.1-0.7,0.3-1,0.4c-0.3,0.1-0.7,0.2-1,0.4c-0.3,0.2-0.4,0.6-0.7,0.8
				c-0.2,0.2-0.6,0.4-0.7,0.8c-0.1,0.3,0,0.7,0,1.1c0,0.5,0.4,0.5,0.4,1c0,0.5-0.1,0.5-0.1,1c0,0.5-0.6,0.5-0.6,1
				c0,0.5,0.3,0.5,0.3,1c0,0.5-0.3,0.5-0.3,1c0,0.5,0.6,0.5,0.6,1c0,0.5-0.5,0.5-0.5,1c0,0.5-0.2,0.5-0.2,1c0,0.5,0.5,0.5,0.5,1
				c0,0.5,0,0.5,0,1c0,0.5,0.2,0.5,0.2,1c0,0.5-0.7,0.5-0.7,1c0,0.3,0.4,0.6,0.5,1c0.1,0.3,0.1,0.7,0.2,1c0.1,0.3,0.1,0.7,0.3,1
				c0.2,0.2,0.9,0.1,1.1,0.3c0.2,0.2,0.4,0.4,0.7,0.6c0.3,0.2,0.5,0.4,0.8,0.6c0.3,0.1,0.5,0.3,0.9,0.5c0.3,0.1,0.6,0.2,0.9,0.3
				c0.3,0.1,0.6,0.3,0.9,0.4c0.3,0.1,0.6,0.2,1,0.3c0.3,0.1,0.7,0,1,0.1c0.3,0.1,0.6,0.4,0.9,0.5c0.3,0.1,0.7,0,1,0
				c0.3,0.1,0.5,0.7,0.9,0.8c0.3,0.1,0.7,0,1,0c0.3,0,0.7-0.6,1.1-0.5c0.3,0,0.6,0.1,1,0.2c0.3,0,0.6,0.7,0.9,0.8
				c0.3,0,0.7-0.6,1.1-0.5c0.3,0,0.7,0,1,0.1c0.3,0,0.6,0.4,1,0.4c0.3,0,0.6,0.4,1,0.5c0.3,0,0.7-0.6,1-0.5c0.3,0,0.6,0.3,1,0.4
				c0.3,0,0.7,0,1,0.1c0.3,0,0.7-0.5,1-0.5c0.3,0,0.7,0.4,1,0.4c0.3,0,0.7-0.4,1-0.4c0.3,0,0.7,0.6,1,0.6c0.3,0,0.7-0.5,1-0.5
				c0.3,0,0.7,0.6,1,0.6c0.3,0,0.7,0,1,0c0.3,0,0.7-0.7,1-0.7c0.3,0,0.7,0.6,1,0.6c0.3,0,0.7,0.1,1,0.1c0.3,0,0.7-0.2,1-0.2
				c0.3,0,0.7-0.5,1-0.5c0.3,0,0.7,0.4,1,0.4c0.3,0,0.7-0.3,1-0.3c0.3,0,0.7,0.1,1,0.1c0.3,0,0.7-0.1,1-0.1c0.3,0,0.7,0,1,0
				c0.3,0,0.7-0.2,1-0.2c0.3,0,0.7,0.4,1,0.4c0.3,0,0.6-0.3,1-0.4c0.3,0,0.6-0.2,1-0.2c0.3,0,0.7,0.6,1,0.6c0.3,0,0.6-0.2,1-0.2
				c0.3,0,0.6-0.6,0.9-0.6c0.3,0,0.7,0.6,1.1,0.5c0.3,0,0.7,0,1,0c0.3-0.1,0.6-0.4,0.9-0.5c0.3-0.1,0.6-0.3,0.9-0.3
				c0.3-0.1,0.7-0.1,1-0.2c0.3-0.1,0.8,0.2,1.1,0.1c0.3-0.1,0.4-0.9,0.6-1c0.3-0.1,0.5-0.3,0.8-0.5c0.3-0.2,0.8,0,1-0.1
				c0.3-0.2,0.3-0.6,0.5-0.9c0.2-0.2,0.5-0.4,0.7-0.7c0.2-0.3,0.4-0.5,0.6-0.8c0.1-0.3,0-0.7,0.1-1c0.1-0.3,0.7-0.5,0.8-0.8
				c0.1-0.3,0.2-0.6,0.2-1c0-0.3-0.6-0.7-0.6-1c0-0.3,0.4-0.7,0.4-1c0-0.3,0.2-0.7,0.2-1c0-0.3,0.3-0.7,0.3-1c0-0.3-0.3-0.7-0.3-1
				c0-0.3,0.1-0.7,0.1-1c0-0.4,0.1-0.7,0.1-1c0-0.4-0.2-0.7-0.2-1c0-0.4,0.1-0.7,0.1-1c0-0.4,0-0.7,0-1c0-0.4-0.2-0.7-0.2-1
				c0-0.7-0.4-0.5-0.5-1c0-0.4,0.2-0.7,0.1-1c-0.1-0.4,0.2-0.9,0-1.1c-0.2-0.3-0.8-0.3-1-0.5c-0.3-0.2-0.5-0.4-0.9-0.5
				c-0.3-0.1-0.7-0.2-1-0.3c-0.3-0.1-0.7-0.6-0.9-0.9c-0.1-0.4,0.3-0.7,0.5-1.1c0.1-0.1-0.2-0.6,0-1.1c0.1-0.3,0.7-0.4,0.8-0.7
				c0.1-0.3-0.4-0.8-0.3-1.2c0.1-0.3,0.2-0.6,0.4-0.9c0.1-0.3,0.4-0.5,0.5-0.9c0.1-0.3,0.3-0.6,0.4-0.9c0.1-0.3,0.2-0.6,0.3-0.9
				c0.1-0.3,0.4-0.5,0.5-0.8c0.1-0.3,0.1-0.6,0.2-1c0.1-0.3,0.3-0.6,0.4-0.9c0.1-0.3,0.4-0.6,0.5-0.9c0.1-0.3-0.2-0.7-0.2-1.1
				c0.1-0.3,0.1-0.7,0.1-1c0.1-0.3,0.9-0.4,1-0.7c0.1-0.3,0.1-0.6,0.2-1c0.1-0.3,0.2-0.6,0.3-0.9c0.1-0.3,0.1-0.6,0.2-1
				c0.1-0.3-0.1-0.7,0-1c0.1-0.3-0.3-0.7-0.3-1c0.1-0.3,0.9-0.5,0.9-0.8c0.1-0.3-0.1-0.7,0-1c0-0.3,0.2-0.6,0.2-1
				c0-0.3-0.5-0.7-0.5-1c0-0.3,0.5-0.6,0.5-0.9c0-0.3-0.1-0.7,0-1c0-0.3,0.5-0.6,0.6-0.9c0.1-0.3-0.3-0.7-0.3-1
				c0.1-0.3,0.5-0.6,0.6-0.9c0.1-0.3-0.4-0.7-0.3-1.1c0.1-0.3,0.4-0.6,0.4-0.9c0.1-0.3,0-0.7,0-1c0.1-0.3,0.1-0.7,0.1-1
				c0.1-0.3,0.4-0.6,0.5-0.9c0.1-0.3,0.2-0.6,0.3-0.9c0.1-0.3,0.2-0.6,0.3-0.9c0.1-0.3,0.4-0.6,0.4-0.9c0.1-0.3,0-0.7,0-1
				c0-0.3,0.1-0.6,0.2-1c0-0.3,0.2-0.6,0.2-1c0-0.3,0.1-0.7,0.1-1c0-0.3-0.1-0.6-0.1-1c0-0.3-0.1-0.6-0.2-1c0-0.3-0.1-0.6-0.1-1
				c0-0.3-0.6-0.6-0.6-0.9c0-0.3,0.3-0.7,0.3-1c0-0.3,0-0.6,0-1c0-0.3-0.5-0.6-0.5-1c0-0.3,0.7-0.7,0.7-1c0-0.3-0.8-0.6-0.8-1
				c0-0.3,0.5-0.7,0.5-1c0-0.3-0.3-0.6-0.3-1c0-0.3,0.1-0.7,0.1-1c0-0.3-0.1-0.7-0.1-1c0-0.3-0.2-0.6-0.2-1c0-0.3,0.3-0.7,0.3-1
				c0-0.3-0.3-0.7-0.3-1c0-0.3,0.1-0.7,0.1-1c0-0.3-0.2-0.7-0.2-1c0-0.3,0.5-0.7,0.5-1c0-0.3-0.2-0.7-0.2-1c0-0.3-0.4-0.7-0.4-1
				c0-0.3,0.4-0.7,0.4-1c0-0.3-0.3-0.7-0.3-1c0-0.3,0.1-0.7,0.1-1c0-0.3,0-0.7,0-1c0-0.3,0.3-0.7,0.3-1c0-0.3,0-0.7,0-1
				c0-0.3,0.3-0.7,0.3-1c0-0.3-0.4-0.7-0.4-1c0-0.3,0.2-0.7,0.2-1c0-0.3-0.2-0.7-0.2-1c0-0.3,0.4-0.7,0.4-1c0-0.3-0.4-0.7-0.4-1
				c0-0.3,0.2-0.7,0.2-1c0-0.3,0-0.7,0-1c0-0.3,0.3-0.7,0.3-1c0-0.3,0.1-0.7,0.1-1c0-0.3-0.7-0.7-0.7-1c0-0.4,0.5-0.7,0.5-1
				c0-0.3-0.6-0.6-0.6-1c0-0.3,0.3-0.6,0.3-1c0-0.3,0.5-0.7,0.5-1c0-0.3-0.7-0.6-0.7-0.9c0-0.3-0.1-0.6-0.2-1c0-0.3,0.1-0.7,0.1-1
				c0-0.3-0.3-0.6-0.3-0.9c0-0.3,0.6-0.7,0.6-1c0-0.3-0.5-0.6-0.6-0.9c0-0.3,0.2-0.7,0.1-1c0-0.3,0.1-0.7,0-1c0-0.3-0.2-0.6-0.3-1
				c0-0.3,0.1-0.7,0.1-1c0-0.3-0.7-0.6-0.7-0.9c0-0.3,0.1-0.7,0.1-1c0-0.3,0.2-0.7,0.1-1c0-0.3-0.3-0.6-0.3-0.9c0-0.3,0.5-0.7,0.4-1
				c0-0.3-0.6-0.6-0.7-0.9c0-0.3,0.5-0.7,0.5-1c0-0.3-0.2-0.6-0.2-1c0-0.3-0.3-0.6-0.3-1c0-0.3,0.5-0.7,0.4-1c0-0.3-0.7-0.6-0.7-1
				c0-0.3,0.2-0.7,0.2-1c0-0.3-0.2-0.6-0.2-1c0-0.3,0.3-0.7,0.3-1c0-0.3,0-0.7,0-1c0-0.3-0.1-0.6-0.1-1c0-0.3,0.2-0.7,0.2-1
				c0-0.3-0.6-0.7-0.6-1s0.1-0.7,0.1-1c0-0.3-0.1-0.7-0.1-1c0-0.3,0.1-0.7,0.1-1c0-0.3-0.3-0.6-0.3-0.9c-0.1-0.3,0.6-0.8,0.5-1.1
				c-0.1-0.3-0.6-0.5-0.7-0.8c-0.1-0.3-0.4-0.6-0.5-0.8c-0.1-0.3-0.1-0.7-0.3-1c-0.2-0.3-0.1-0.7-0.4-1C57.9,3,57.4,3,57.2,2.7
				c-0.2-0.2-0.5-0.4-0.8-0.6c-0.3-0.2-0.4-0.6-0.7-0.7c-0.3-0.2-0.8,0.3-1.1,0.1c-0.3-0.1-0.5-0.4-0.9-0.4
				c-0.3-0.1-0.6-0.6-0.9-0.6c-0.3,0-0.7-0.1-1,0c-0.3,0-0.6,0.6-0.9,0.7c-0.3,0.1-0.6,0.2-0.9,0.3c-0.3,0.1-0.7,0-1,0.2
				c-0.3,0.2-0.6,0.3-0.9,0.5c-0.2,0.2-0.2,0.7-0.4,1c-0.2,0.2-0.5,0.4-0.6,0.7c-0.2,0.3-0.5,0.5-0.7,0.8c-0.1,0.3,0.1,0.7,0,1.1
				c-0.1,0.3-0.6,0.5-0.7,0.8c-0.1,0.3-0.4,0.6-0.4,1c0,0.3,0.4,0.7,0.4,1c0,0.3-0.3,0.7-0.3,1c0,0.4,0.5,0.7,0.5,1
				c0,0.4-0.2,0.7-0.2,1c0,0.4-0.1,0.7-0.1,1c0,0.4,0,0.7,0,1c0,0.4,0.2,0.7,0.2,1c0,0.4,0.3,0.7,0.3,1c0,0.4-0.4,0.7-0.4,1
				c0,0.4,0.1,0.7,0.1,1c0,0.4-0.1,0.7-0.2,1c0,0.4-0.2,0.7-0.2,1c0,0.4,0,0.7-0.1,1c0,0.3-0.2,0.7-0.2,1c0,0.3,0.2,0.6,0.2,1
				c0,0.3,0.4,0.6,0.5,0.9c0,0.3-0.3,0.7-0.3,1c0,0.3-0.4,0.7-0.4,1c0,0.3,0.6,0.6,0.6,1c0,0.3-0.6,0.7-0.6,1c0,0.3,0.6,0.6,0.6,1
				c0,0.3,0.1,0.7,0.1,1c0,0.3-0.7,0.6-0.7,1c0,0.3,0.2,0.7,0.2,1c0,0.3,0.4,0.7,0.4,1c0,0.3,0,0.7,0,1c0,0.3-0.5,0.6-0.6,1
				c0,0.3,0,0.7,0,1c0,0.3,0.1,0.7,0.1,1c0,0.3-0.3,0.6-0.3,1c0,0.3,0.4,0.7,0.4,1c0,0.3,0.2,0.7,0.1,1c0,0.3,0,0.6,0,1
				c0,0.3-0.7,0.7-0.7,1.1c0,0.3,0.3,0.6,0.4,1c0,0.3-0.2,0.7-0.2,1c0,0.3,0.4,0.7,0.4,1c0,0.3,0.1,0.7,0.1,1c0,0.3-0.4,0.7-0.5,1
				c0,0.3-0.1,0.7-0.1,1c0,0.3,0.1,0.7,0,1c0,0.3,0.1,0.6,0,1c-0.1-0.4-0.2-0.6-0.3-0.9c-0.1-0.3,0.1-0.8,0-1.1
				c-0.1-0.3-0.3-0.7-0.4-1c-0.2-0.3-0.3-0.6-0.5-0.9c-0.2-0.3-0.9-0.2-1.1-0.5c-0.2-0.3,0-0.7-0.2-1.1c-0.1-0.3-0.6-0.4-0.8-0.8
				c-0.1-0.3,0.3-0.9,0.2-1.2c-0.1-0.3-0.9-0.3-1.1-0.6c-0.2-0.3-0.1-0.7-0.3-0.9c-0.2-0.3-0.5-0.4-0.7-0.6
				c-0.2-0.2-0.3-0.7-0.5-0.9c-0.3-0.2-0.7-0.1-1-0.2c-0.3-0.1-0.4-0.7-0.7-0.8c-0.3-0.1-0.7,0.2-1.1,0.2c-0.3-0.1-0.6-0.2-0.9-0.3
				c-0.3,0-0.6-0.6-1-0.6c-0.3,0-0.6,0.8-1,0.9c-0.3,0-0.7-0.4-1-0.3c-0.3,0-0.6,0.4-0.9,0.4c-0.3,0.1-0.6,0.1-1,0.2
				c-0.3,0.1-0.7-0.1-1.1,0c-0.3,0.1-0.6,0.3-0.9,0.4c-0.3,0.1-0.6,0.3-0.9,0.5c-0.3,0.2-0.5,0.4-0.8,0.6c-0.3,0.2-0.7,0.2-0.9,0.4
				c-0.3,0.2,0,1-0.2,1.2c-0.2,0.2-0.9,0.1-1,0.4c-0.2,0.3,0.1,0.8-0.1,1.1c-0.1,0.3-0.8,0.4-0.8,0.7C23.8,44.2,24.3,44.6,24.3,44.9
				z"/>
		</g>
	</g>
</g>
<g>
	<g>
		<g>
			<path class="st2" d="M29.5,126.1c-0.3,0-0.6-0.1-1-0.1c-0.3,0-0.6,0-1,0c-0.3,0-0.6-0.1-1-0.1c-0.3,0-0.7,0.2-1,0.2
				c-0.3,0-0.6-0.2-1-0.2c-0.3,0-0.7,0.1-1,0.1c-0.3,0-0.7,0.1-1,0c-0.3,0-0.7,0-1-0.1c-0.3,0-0.7-0.1-1-0.1c-0.3,0-0.6-0.2-1-0.2
				c-0.3,0-0.7,0.1-1,0.1c-0.3,0-0.7-0.1-1-0.1c-0.3,0-0.7,0-1-0.1c-0.3,0-0.7-0.1-1-0.1c-0.3,0-0.7-0.1-1-0.1c-0.3,0-0.7,0-1,0
				c-0.3,0-0.6-0.2-1-0.2c-0.3,0-0.7,0.1-1,0.1c-0.3,0-0.6-0.3-1-0.4c-0.3,0-0.7,0.1-1,0.1c-0.3,0-0.6-0.2-1-0.3
				c-0.3,0-0.7,0.1-1,0.1c-0.4,0-0.7-0.3-1-0.3c-0.4-0.1-0.7-0.1-1-0.2c-0.5-0.1-0.9,0.1-1,0.1c-0.3-0.1-0.6-0.3-0.9-0.2
				c-0.3,0.1-0.6,0.3-0.7,0.6c-0.1,0.2-0.2,0.6-0.3,0.9c0,0.3,0.1,0.6,0.1,0.9c0,0.2,0.1,0.6,0.1,1c0,0.3,0,0.6,0,1c0,0.3,0,0.6,0,1
				c0,0.3-0.2,0.7-0.2,1c0,0.3,0,0.7,0,1c0,0.3,0.1,0.7,0.1,1c0,0.4,0,0.7,0,1c0,0.6,0.1,0.5,0.1,1c0,0.3,0,0.6,0.1,1
				c0.1,0.3,0.2,0.6,0.4,0.9c0.2,0.3,0.4,0.5,0.6,0.7c0.2,0.2,0.4,0.6,0.7,0.7c0.3,0.2,0.6,0.3,0.9,0.4c0.3,0.1,0.6,0.1,1,0.3
				c0.3,0.1,0.5,0.4,0.9,0.5c0.3,0.1,0.7,0,1,0.1c0.3,0.1,0.6,0.4,0.9,0.5c0.3,0.1,0.7,0,1,0.1c0.3,0.1,0.7,0,1,0.1
				c0.3,0.1,0.6,0.3,1,0.3c0.3,0,0.7,0.1,1,0.1c0.3,0,0.7-0.2,1-0.1c0.3,0,0.7,0,1,0.1c0.3,0,0.6,0.3,1,0.3c0.3,0,0.7-0.1,1-0.1
				c0.3,0,0.7,0.1,1,0.1c0.3,0,0.7,0.2,1,0.2c0.3,0,0.7-0.2,1-0.1c0.3,0,0.6,0.3,1,0.3c0.3,0,0.7-0.1,1-0.1c0.3,0,0.7,0,1,0.1
				c0.3,0,0.7,0.1,1,0.1c0.3,0,0.7,0,1,0c0.3,0,0.7-0.1,1-0.1c0.3,0,0.7,0.1,1,0.1c0.3,0,0.7,0,1,0c0.3,0,0.7-0.2,1-0.2
				c0.3,0,0.7,0.2,1,0.2c0.3,0,0.7-0.1,1-0.1c0.3,0,0.7,0.1,1,0.1c0.3,0,0.7-0.2,1-0.2c0.3,0,0.7,0.2,1,0.2c0.3,0,0.7-0.1,1-0.1
				c0.3,0,0.7,0.1,1,0c0.3,0,0.7-0.1,1-0.1c0.3,0,0.7,0,1,0c0.3,0,0.7,0,1,0c0.3,0,0.7-0.2,1-0.2c0.3,0,0.7,0.2,1,0.2
				c0.3,0,0.7-0.3,1-0.3c0.3,0,0.7,0.1,1,0.1c0.3,0,0.7,0,1-0.1c0.3,0,0.7,0.1,1,0c0.3,0,0.6-0.4,1-0.4c0.3,0,0.7,0.1,1,0.1
				c0.3,0,0.7-0.2,1-0.2c0.3-0.1,0.7-0.1,1-0.2c0.3-0.1,0.7,0,1-0.1c0.3-0.1,0.7-0.2,1-0.3c0.3-0.1,0.6-0.4,0.8-0.6
				c0.3-0.2,0.6-0.3,0.9-0.5c0.3-0.2,0.4-0.5,0.6-0.8c0.2-0.3,0.5-0.5,0.6-0.7c0.1-0.3,0.4-0.6,0.5-0.9c0.1-0.3,0-0.6,0.1-1
				c0-0.3,0-0.6,0.1-1c0-0.3,0.2-0.6,0.2-1c0-0.5-0.1-0.5-0.1-0.9c0-0.5-0.1-0.5-0.1-0.9c0-0.5,0-0.5-0.1-0.9c0-0.5,0.2-0.5,0.2-1
				c0-0.5,0-0.5,0-0.9c0-0.5,0-0.5,0-1c0-0.5,0-0.5,0-1c0-0.5-0.1-0.5-0.1-1c0-0.5,0-0.5-0.1-1c0-0.3-0.2-0.4-0.4-0.6
				c-0.2-0.2-0.3-0.5-0.5-0.6c-0.3-0.1-0.5,0-0.9,0c-0.3,0.1-0.6,0-1,0.1c-0.3,0.1-0.5,0.3-0.9,0.4c-0.3,0.1-0.7-0.1-1,0
				c-0.3,0.1-0.6,0.2-1,0.3c-0.3,0.1-0.6,0.1-1,0.2c-0.3,0.1-0.6,0.2-0.9,0.3c-0.3,0.1-0.6,0-1,0.1c-0.3,0.1-0.6,0.2-1,0.2
				c-0.3,0-0.6,0.2-1,0.3c-0.3,0-0.6,0-1,0.1c-0.3,0-0.7-0.1-1-0.1c-0.3,0-0.6,0.2-1,0.2c-0.3,0-0.7,0-1,0c-0.3,0-0.6,0.3-1,0.3
				c-0.3,0-0.7-0.1-1-0.1c-0.3,0-0.7,0-1,0c-0.3,0-0.6,0.2-1,0.3c-0.3,0-0.7,0.1-1,0.1c-0.3,0-0.7,0.1-1,0.1c-0.3,0-0.7-0.2-1-0.2
				c-0.3,0-0.6,0.2-1,0.2c-0.3,0-0.7,0-1,0c-0.3,0-0.7-0.1-1-0.1C30.1,125.9,29.8,126.1,29.5,126.1z"/>
		</g>
		<g>
			<path class="st2" d="M27.1,105.9c-0.3,0.3-0.9,0.6-1.3,0.4c-0.4-0.2-0.5-0.5-0.6-0.8c-0.1-0.3-0.1-0.6,0-1c0.1-0.3,0-0.7,0.1-1
				c0.1-0.4,0.5-0.7,0.5-1c0-0.2-0.3-0.5-0.3-1c0-0.3,0.2-0.6,0.3-0.9c0-0.3-0.1-0.6-0.1-0.9c0-0.3,0.1-0.6,0.2-0.9
				c0-0.3,0.4-0.6,0.4-0.9c0-0.3,0-0.6,0-0.9c0-0.3-0.2-0.6-0.2-0.9c0-0.3-0.2-0.6-0.3-0.9c-0.1-0.3,0.1-0.7,0-1
				c-0.1-0.3-0.2-0.6-0.4-0.9c-0.2-0.3-0.5-0.4-0.7-0.8c-0.2-0.3-0.4-0.5-0.6-0.8c-0.2-0.3-0.3-0.6-0.6-0.8
				c-0.2-0.3-0.3-0.6-0.6-0.8c-0.2-0.2-0.5-0.5-0.7-0.7c-0.2-0.2-0.5-0.4-0.8-0.7c-0.2-0.2-0.6-0.3-0.9-0.5
				c-0.3-0.2-0.3-0.7-0.6-0.9c-0.3-0.2-0.7-0.1-1-0.3c-0.3-0.2-0.6-0.3-0.9-0.4c-0.3-0.1-0.6-0.4-0.9-0.5c-0.3-0.1-0.7-0.1-1-0.2
				c-0.3-0.1-0.5-0.5-0.9-0.6c-0.2-0.1-0.5-0.1-0.9-0.3c-0.2-0.1-0.5-0.3-0.8-0.5c-0.2-0.2-0.4-0.4-0.7-0.6
				c-0.2-0.2-0.5-0.3-0.8-0.5c-0.2-0.2-0.5-0.4-0.7-0.6c-0.2-0.2-0.5-0.4-0.7-0.7c-0.2-0.3-0.3-0.6-0.4-0.8C10,81,9.8,80.7,9.7,80.4
				c-0.1-0.4-0.1-0.7-0.4-1C9,79.2,8.7,79,8.4,79c-0.4,0-0.6,0.2-0.8,0.5c-0.2,0.2-0.4,0.5-0.4,0.9c0,0.3-0.3,0.6-0.4,0.9
				c0,0.3,0.2,0.7,0.2,1c-0.1,0.3-0.5,0.5-0.6,0.9c-0.1,0.3,0.2,0.7,0.1,1c-0.1,0.3-0.3,0.6-0.3,0.9c-0.1,0.3-0.2,0.6-0.3,0.9
				c-0.1,0.3-0.1,0.6-0.2,0.9c-0.1,0.3,0,0.6,0,1c-0.1,0.3-0.2,0.6-0.3,0.9c0,0.3,0,0.6-0.1,1c0,0.3-0.1,0.6-0.2,1
				c0,0.3,0.2,0.7,0.1,1c0,0.3-0.2,0.6-0.3,1c0,0.3-0.1,0.6-0.1,1c0,0.3-0.1,0.6-0.2,1c0,0.3,0.3,0.7,0.3,1c0,0.3-0.3,0.6-0.3,1
				c0,0.3,0.2,0.6,0.2,1c0,0.3,0.1,0.6,0.1,1c0,0.3,0,0.6,0,1c0,0.3-0.1,0.6-0.1,1c0,0.3-0.1,0.7-0.1,1c0,0.3,0.3,0.6,0.3,1
				c0,0.3,0,0.7,0,1c0,0.3,0.1,0.7,0.1,1c0,0.3,0.1,0.7,0.1,1c0,0.3,0,0.7,0.1,1c0,0.3,0.2,0.6,0.2,1c0.1,0.3-0.1,0.7,0,1
				c0.1,0.3,0.4,0.6,0.5,0.9c0.1,0.3-0.2,0.7-0.1,1.1c0.1,0.3,0.4,0.6,0.5,0.9c0.1,0.3,0,0.7,0.1,1c0.1,0.3,0.5,0.5,0.6,0.8
				c0.1,0.3,0,0.7,0.1,1c0.1,0.3,0.3,0.6,0.4,0.9c0.2,0.3,0.7,0.4,0.8,0.7c0.2,0.3,0.2,0.7,0.4,0.9c0.2,0.3,0.3,0.6,0.5,0.9
				c0.2,0.3,0.4,0.5,0.6,0.8c0.2,0.2,0.6,0.3,0.8,0.6c0.2,0.2,0.5,0.4,0.8,0.6c0.3,0.2,0.5,0.4,0.8,0.6c0.3,0.2,0.6,0.3,0.9,0.5
				c0.3,0.2,0.4,0.6,0.7,0.8c0.3,0.1,0.6,0.3,0.9,0.5c0.3,0.1,0.7,0.1,1,0.2c0.3,0.1,0.6,0.2,1,0.3c0.3,0.1,0.7,0.1,1,0.1
				c0.3,0.1,0.6,0.2,1,0.2c0.3,0.1,0.7,0.1,1,0.1c0.3,0.1,0.6,0.1,1,0.2c0.3,0,0.6,0.4,1,0.4c0.3,0,0.7-0.1,1-0.1
				c0.3,0,0.6-0.2,1-0.2c0.3,0,0.6,0.3,1,0.3c0.3,0,0.6-0.3,1-0.3c0.3,0,0.6,0.5,1,0.5c0.3,0,0.6-0.2,1-0.2c0.3,0,0.6-0.1,1-0.1
				c0.3,0,0.6,0.3,1,0.3c0.3,0,0.6,0,1,0c0.3,0,0.6-0.4,1-0.4c0.3,0,0.6-0.1,1-0.1c0.3,0,0.7,0.4,1,0.4c0.3,0,0.6-0.3,1-0.3
				c0.3,0,0.7,0,1,0c0.3,0,0.7,0.2,1,0.2c0.3,0,0.6-0.3,1-0.4c0.3,0,0.7,0.4,1,0.3c0.3,0,0.6-0.3,1-0.3c0.3,0,0.7,0,1,0
				c0.3,0,0.7,0.1,1,0c0.3,0,0.7,0,1-0.1c0.3,0,0.6-0.3,0.9-0.3c0.3,0,0.7,0.1,1,0.1c0.3,0,0.7-0.1,1-0.2c0.3-0.1,0.6-0.4,0.9-0.5
				c0.3-0.1,0.7,0.1,1,0c0.3-0.1,0.6-0.3,0.9-0.5c0.3-0.1,0.7-0.2,1-0.4c0.3-0.2,0.3-0.7,0.6-0.9c0.2-0.2,0.7-0.3,0.9-0.5
				c0.2-0.3,0.3-0.6,0.5-0.9c0.2-0.3,0.4-0.6,0.5-0.9c0.1-0.3,0.2-0.7,0.3-1c0.1-0.3,0.3-0.6,0.4-0.9c0.1-0.3,0.3-0.6,0.4-0.9
				c0.1-0.3,0-0.7,0.2-1c0.1-0.3,0.6-0.5,0.7-0.8c0.1-0.3-0.1-0.8,0-1.1c0.1-0.3,0.4-0.6,0.5-0.9c0.1-0.3,0.3-0.6,0.4-0.9
				c0.1-0.3,0.4-0.6,0.5-0.9c0.1-0.3-0.2-0.8-0.1-1.1c0.1-0.3,0.5-0.5,0.6-0.9c0.1-0.3,0.1-0.7,0.2-1c0.1-0.3,0.2-0.6,0.3-1
				c0.1-0.3,0.4-0.6,0.5-0.9c0.1-0.3,0.2-0.7,0.3-1c0.1-0.3-0.1-0.7-0.1-1.1c0.1-0.3,0.2-0.6,0.3-1c0.1-0.3-0.1-0.7,0-1
				c0.1-0.3,0.3-0.6,0.3-1c0.1-0.3,0.3-0.6,0.3-1c0.1-0.3-0.1-0.7,0-1c0.1-0.3,0.1-0.7,0.1-1c0.1-0.3,0.3-0.6,0.4-1
				c0.1-0.3,0-0.7,0-1c0-0.3,0-0.7,0-1c0-0.3,0-0.7,0.1-1c0-0.3,0.4-0.6,0.4-0.9c0-0.3,0.1-0.7,0.2-1c0-0.3,0.1-0.7,0.2-1
				c0.1-0.3,0.2-0.6,0.2-1c0.1-0.3,0-0.7,0-1c0.1-0.3,0.1-0.7,0.1-1c0.1-0.3-0.1-0.7,0-1c0.1-0.3,0.4-0.6,0.4-0.9c0.1-0.3,0-0.7,0-1
				c0.1-0.3,0.4-0.6,0.4-0.9c0-0.3-0.2-0.7-0.2-1c0-0.3,0.3-0.7,0.3-1c0-0.3-0.2-0.6-0.3-1c-0.1-0.3-0.2-0.6-0.3-0.9
				c-0.1-0.3-0.4-0.5-0.6-0.8c-0.2-0.3-0.2-0.6-0.4-0.9c-0.2-0.3-0.5-0.5-0.6-0.8c-0.2-0.3-0.6-0.4-0.7-0.7
				c-0.2-0.3-0.3-0.6-0.5-0.9c-0.2-0.3-0.1-0.7-0.2-1c-0.2-0.3-0.5-0.5-0.6-0.8c-0.2-0.3-0.2-0.6-0.3-0.9c-0.1-0.3-0.6-0.4-0.7-0.7
				c-0.1-0.3,0-0.7-0.2-1c-0.1-0.3-0.2-0.6-0.3-0.9c-0.1-0.3-0.5-0.5-0.7-0.8c-0.1-0.3-0.3-0.6-0.4-0.9c-0.1-0.3-0.3-0.6-0.5-0.9
				c-0.1-0.3,0.1-0.8,0-1.1c-0.1-0.3-0.4-0.5-0.6-0.8c-0.1-0.3-0.2-0.6-0.3-1c-0.1-0.3-0.1-0.7-0.2-1c-0.1-0.3-0.5-0.5-0.6-0.8
				c-0.1-0.3-0.2-0.6-0.3-0.9c-0.1-0.3-0.2-0.6-0.3-0.9c-0.1-0.3-0.2-0.6-0.4-0.9c-0.2-0.3-0.3-0.6-0.5-0.8
				c-0.2-0.3-0.4-0.6-0.6-0.8c-0.2-0.3-0.5-0.6-0.7-0.8c-0.3-0.3-0.6-0.4-0.8-0.5c-0.3-0.1-0.4-0.5-0.6-0.8
				c-0.2-0.3-0.4-0.5-0.5-0.9c-0.1-0.3,0-0.7-0.1-1c-0.2-0.3-0.4-0.5-0.6-0.8c-0.2-0.3-0.7-0.3-0.8-0.5c-0.2-0.2-0.3-0.5-0.4-0.8
				c-0.1-0.2-0.1-0.7-0.2-1c-0.3,0.2-0.4,0.7-0.5,1c-0.2,0.3-0.2,0.5-0.2,0.8c-0.1,0.3-0.3,0.5-0.5,0.8c-0.1,0.2-0.5,0.3-0.7,0.5
				c-0.2,0.2-0.2,0.6-0.5,0.8c-0.2,0.1-0.6,0.1-0.9,0.3c-0.3,0.1-0.5,0.1-0.9,0.1c-0.3,0-0.7,0.2-1,0.2c-0.4-0.1-0.7-0.4-0.9-0.5
				c-0.3-0.2-0.7-0.2-0.9-0.5c-0.2-0.2,0-0.7-0.1-1c-0.1-0.3-0.5-0.5-0.5-0.8c-0.1-0.3,0.2-0.7,0.1-1c-0.1-0.3-0.1-0.6-0.1-0.9
				c0-0.4-0.5-0.6-0.5-0.9c-0.1-0.3,0.1-0.8,0.1-1.1c-0.1-0.4-0.1-0.7-0.1-1.1c-0.1-0.4-0.2-0.7-0.3-1.1c-0.1-0.3-0.4-0.6-0.3-0.9
				c0-0.3,0.3-0.6,0.4-0.9c0.1-0.3,0.2-0.7,0.3-0.9c0.2-0.3,0.5-0.5,0.7-0.7c0.4-0.4,0.7-0.4,0.3-0.4c-0.3,0-0.6,0-0.9,0
				c-0.3,0-0.6,0.2-0.9,0.3c-0.3,0.1-0.7,0.1-0.9,0.3c-0.2,0.2-0.3,0.6-0.5,0.8c-0.2,0.3-0.2,0.6-0.3,0.9c-0.1,0.3-0.6,0.5-0.6,0.8
				c-0.1,0.3,0,0.7,0,1c0,0.3,0.2,0.6,0.2,1c0,0.3-0.4,0.7-0.3,1c0,0.3,0,0.7,0,1c0,0.3,0.3,0.6,0.3,0.9c0.1,0.4,0.2,0.7,0.2,0.9
				c0,0.3,0,0.7,0.1,1c0.1,0.3-0.1,0.7,0,1c0.1,0.3,0.6,0.5,0.7,0.8c0.1,0.3,0.3,0.6,0.4,0.9c0.1,0.3,0,0.7,0.1,1
				c0.1,0.3,0.4,0.6,0.5,0.9c0.1,0.3,0.1,0.6,0.2,1c0.1,0.2,0.2,0.5,0.3,0.9c0.1,0.3,0.3,0.5,0.4,0.9c0.1,0.3-0.1,0.7,0,1
				c0.1,0.3,0.2,0.6,0.3,0.9c0.1,0.3,0.6,0.4,0.8,0.7c0.2,0.3,0.1,0.7,0.4,0.9c0.2,0.2,0.4,0.5,0.7,0.7c0.3,0.2,0.5,0.4,0.9,0.5
				c0.3,0.1,0.7-0.1,1-0.1c0.2,0,0.6,0.1,0.9,0.2c0.3,0.1,0.4,0.2,0.5,0.5c0,0.2,0.1,0.4,0,0.8c-0.1,0.2-0.2,0.6-0.3,1
				c0,0.3-0.1,0.6-0.1,1c0,0.3,0.1,0.6,0.1,1c0,0.3,0.3,0.6,0.3,1c0,0.3-0.1,0.7,0,1c0,0.3-0.1,0.7-0.1,1c0.1,0.3,0.4,0.6,0.5,0.9
				c0.1,0.3,0.2,0.6,0.4,0.9c0.2,0.3,0.4,0.5,0.6,0.6c0.4,0.2,0.8,0.4,1,0.7c0.3,0.3,0.3,0.7,0.5,1.1c0.2,0.5,0.4,0.9,0.2,1.1
				c-0.2,0.2-0.6,0.1-1.1,0c-0.3,0-0.7,0.3-1.1,0.3c-0.4,0-0.6,0.1-1,0.2c-0.3,0.1-0.6,0.2-0.8,0.5c-0.2,0.2-0.3,0.5-0.4,0.9
				c-0.1,0.3-0.1,0.6-0.2,0.9c-0.1,0.3-0.2,0.6-0.2,0.9c0,0.3,0.1,0.6,0.2,0.8c0.1,0.3,0.1,0.5,0.3,0.8c0.1,0.2,0.2,0.6,0.4,0.9
				c0.2,0.3,0.5,0.4,0.7,0.7c0.2,0.3,0.4,0.6,0.5,0.8c0.2,0.3-0.1,0.8,0,1.1c0.1,0.4,0.2,0.6,0.2,0.8c-0.1,0.4-0.2,0.5-0.4,0.6
				c-0.2,0.1-0.3,0.1-0.6-0.3c-0.1-0.2-0.4-0.4-0.6-0.8c-0.1-0.3-0.5-0.4-0.8-0.7c-0.2-0.2-0.2-0.8-0.5-1c-0.3-0.2-0.7-0.3-1-0.4
				c-0.3-0.1-0.7-0.3-1-0.3c-0.3,0-0.6,0.3-1,0.3c-0.3,0.1-0.7-0.1-1,0.1c-0.3,0.1-0.5,0.4-0.8,0.6c-0.3,0.2-0.7,0.2-1,0.5
				C33,86,33,86.4,32.8,86.6c-0.3,0.2-0.6,0.3-0.9,0.5c-0.3,0.2-0.3,0.7-0.5,0.9c-0.3,0.2-0.6,0.4-0.8,0.6c-0.2,0.2-0.3,0.5-0.5,0.8
				c-0.2,0.3-0.3,0.5-0.5,0.8c-0.1,0.3-0.4,0.5-0.5,0.8c-0.1,0.3-0.2,0.6-0.3,0.9c-0.1,0.3-0.2,0.6-0.2,0.9
				c-0.1,0.3-0.2,0.6-0.3,0.9c0,0.3,0,0.6,0,1c0,0.3-0.1,0.6-0.1,1c0,0.3-0.2,0.6-0.2,1c0,0.3-0.1,0.6-0.1,1c0,0.3,0,0.6,0,1
				c0,0.3,0,0.6,0,1c0,0.3,0,0.6-0.1,1c0,0.3,0.3,0.6,0.3,1c0,0.3-0.2,0.6-0.3,1c0,0.3-0.1,0.6-0.1,1c0,0.3,0.3,0.6,0.2,1
				c0,0.4-0.4,0.6-0.5,0.8C27.3,105.5,27.3,105.7,27.1,105.9z"/>
		</g>
		<g>
			<path class="st2" d="M26.9,80.6c0.3,0.2,0.6,0.4,0.8,0.6c0.3,0.2,0.5,0.5,0.8,0.7c0.3,0.2,0.5,0.5,0.8,0.6
				c0.3,0.2,0.6,0.4,0.9,0.5c0.3,0.1,0.6,0.2,1,0.1c0.3,0,0.6-0.1,1-0.3c0.3-0.1,0.5-0.3,0.8-0.6c0.3-0.1,0.4-0.4,0.4-0.9
				c0-0.3,0-0.6-0.1-1c-0.1-0.3-0.2-0.6-0.3-1c-0.1-0.2-0.2-0.5-0.6-0.8c-0.2-0.2-0.5-0.4-0.8-0.7c-0.3-0.2-0.6-0.4-0.9-0.5
				c-0.3-0.2-0.6-0.3-1-0.4c-0.3-0.1-0.7-0.2-1-0.2c-0.3,0-0.7,0-1,0.1c-0.3,0.1-0.6,0.2-0.9,0.4c-0.3,0.2-0.6,0.4-0.8,0.7
				c-0.2,0.3-0.3,0.6-0.3,1c0,0.3,0.2,0.6,0.5,0.9C26.3,80.1,26.6,80.4,26.9,80.6z"/>
		</g>
		<g>
			<path class="st2" d="M18.8,83.8c-0.1,0.3,0.1,0.5,0.4,0.8c0.2,0.2,0.5,0.4,0.8,0.6c0.3,0.2,0.6,0.3,0.9,0.5
				c0.3,0.1,0.6,0.3,0.9,0.4c0.3,0.1,0.6,0.2,0.9,0.3c0.3,0.1,0.7,0.2,0.9,0.3c0.5,0.2,0.9,0.2,1,0.2c0.3-0.1,0.6-0.2,0.9-0.6
				c0.1-0.2,0.2-0.6,0.3-1c0.1-0.3,0.1-0.6,0.2-1.1c0-0.3-0.1-0.6-0.4-0.9c-0.2-0.2-0.4-0.5-0.7-0.7c-0.2-0.2-0.5-0.4-0.8-0.6
				c-0.3-0.2-0.6-0.3-0.9-0.4c-0.3-0.1-0.6-0.2-1-0.3c-0.3,0-0.7,0-1,0c-0.3,0-0.6,0.1-0.9,0.3c-0.3,0.2-0.5,0.4-0.7,0.6
				c-0.2,0.3-0.4,0.5-0.5,0.8C18.9,83.4,18.8,83.8,18.8,83.8z"/>
		</g>
		<g>
			<path class="st2" d="M33.3,73.7c0.2,0.2,0.4,0.4,0.7,0.6c0.2,0.2,0.4,0.4,0.7,0.7c0.2,0.2,0.5,0.4,0.7,0.6
				c0.3,0.2,0.5,0.4,0.8,0.5c0.3,0.2,0.6,0.3,0.8,0.4c0.3,0.1,0.7,0.1,0.9,0c0.3-0.2,0.6-0.4,0.8-0.6c0.3-0.2,0.5-0.5,0.6-0.8
				c0.1-0.3,0.2-0.6,0.2-1c0-0.3,0-0.6-0.1-1c-0.1-0.3-0.2-0.6-0.3-1c-0.1-0.3-0.2-0.5-0.4-0.8c-0.2-0.3-0.4-0.5-0.6-0.7
				c-0.2-0.2-0.4-0.5-0.7-0.7c-0.2-0.2-0.5-0.4-0.8-0.5c-0.3-0.1-0.6-0.2-0.9-0.2c-0.3,0-0.6,0-0.9,0c-0.3,0.1-0.6,0.2-0.9,0.4
				c-0.3,0.1-0.5,0.3-0.8,0.5c-0.2,0.2-0.4,0.4-0.7,0.7c-0.2,0.4-0.4,0.7-0.4,1c0,0.3,0.1,0.6,0.4,1C32.7,73.1,32.9,73.4,33.3,73.7z
				"/>
		</g>
		<g>
			<path class="st2" d="M12.1,60.8c-0.3-0.1-0.6-0.1-1-0.2c-0.3,0-0.7-0.1-1-0.1c-0.3,0-0.7,0-1,0c-0.3,0.1-0.7,0.2-0.9,0.3
				c-0.3,0.1-0.6,0.4-0.8,0.6c-0.2,0.2-0.4,0.5-0.6,0.7c-0.2,0.3-0.4,0.5-0.5,0.8c-0.1,0.3-0.2,0.6-0.3,0.9C6,64.1,6,64.5,6,64.8
				c0,0.3-0.1,0.6-0.1,1c0,0.3,0,0.6,0.1,1c0,0.3,0.1,0.6,0.2,0.9c0.1,0.3,0.1,0.6,0.2,0.9c0.1,0.3,0.3,0.6,0.4,0.9
				c0.1,0.3,0.3,0.6,0.5,0.8c0.2,0.3,0.3,0.6,0.5,0.9c0.2,0.3,0.2,0.6,0.4,0.9c0.2,0.3,0.3,0.6,0.5,0.9C8.7,73.4,8.9,73.7,9,74
				c0.1,0.3,0.3,0.6,0.5,0.9c0.1,0.3,0.2,0.6,0.4,0.9c0.1,0.3,0.2,0.7,0.3,1c0.1,0.3,0.3,0.6,0.4,0.9c0.1,0.3,0.3,0.6,0.4,0.9
				c0.1,0.3,0.3,0.6,0.4,0.9c0.2,0.3,0.3,0.6,0.5,0.9c0.2,0.3,0.4,0.6,0.6,0.8c0.2,0.3,0.4,0.6,0.6,0.8c0.2,0.2,0.6,0.3,0.9,0.5
				c0.3,0.2,0.6,0.4,0.9,0.5c0.3,0.2,0.7,0.2,1,0.3c0.4,0.1,0.7,0.2,1,0.2c0.4,0,0.7-0.2,0.8-0.6c0-0.3,0.1-0.6,0.2-0.9
				c0.1-0.3,0.2-0.6,0.4-0.9c0.2-0.3,0.3-0.6,0.5-0.8c0.2-0.3,0.5-0.5,0.7-0.7c0.1-0.1,0.6-0.1,1.2-0.1c0.6,0,1.1,0,1.1-0.2
				c0-0.1-0.4-0.1-0.9-0.3c-0.2-0.1-0.5-0.3-0.8-0.5c-0.2-0.2-0.5-0.4-0.7-0.7c-0.2-0.2-0.4-0.5-0.6-0.8c-0.2-0.2-0.4-0.5-0.6-0.8
				c-0.2-0.3-0.4-0.5-0.5-0.8c-0.2-0.3-0.2-0.6-0.4-0.9c-0.1-0.3-0.4-0.6-0.5-0.9c-0.1-0.3-0.3-0.6-0.4-0.9c-0.1-0.3-0.2-0.6-0.4-1
				c-0.1-0.3-0.3-0.6-0.4-0.9c-0.1-0.3-0.2-0.7-0.3-1c-0.1-0.3-0.3-0.6-0.4-0.9c-0.1-0.3-0.2-0.7-0.3-1c-0.1-0.3-0.2-0.7-0.3-1
				c-0.1-0.4-0.2-0.7-0.3-1c-0.1-0.3-0.2-0.6-0.3-1c-0.1-0.3-0.2-0.6-0.3-0.9c-0.1-0.3-0.2-0.6-0.3-1c-0.1-0.3-0.2-0.6-0.3-1
				c-0.1-0.3-0.1-0.6-0.1-1C12.5,60.8,12.3,60.8,12.1,60.8z"/>
		</g>
		<g>
			<path class="st2" d="M23.8,50.8c0,0.4,0,0.7,0,1c0,0.4,0,0.7,0,1c0,0.4,0,0.7,0,1c0,0.4,0.1,0.7,0.1,1c0,0.4-0.1,0.7-0.1,1
				c0,0.4,0.1,0.7,0.1,1c0,0.4-0.1,0.7-0.1,1c0,0.4-0.1,0.7-0.2,1c0,0.4,0,0.7,0,1c0,0.3-0.1,0.7-0.1,1c0,0.3,0,0.7,0,1
				c0,0.3-0.1,0.7,0,1c0,0.3,0.1,0.7,0.1,1c0,0.3,0,0.7,0.1,1c0.1,0.3,0.2,0.6,0.3,0.9c0.1,0.3,0.2,0.6,0.3,0.9
				c0.1,0.3,0.2,0.6,0.3,0.9c0.1,0.3,0.2,0.6,0.4,0.9c0.2,0.3,0.3,0.6,0.5,0.8c0.2,0.3,0.5,0.5,0.7,0.7c0.2,0.3,0.5,0.4,0.7,0.6
				c0.3,0.2,0.4,0.5,0.7,0.7c0.3,0.3,0.5,0.6,0.8,0.8c0.3,0.3,0.6,0.4,0.9,0.6c0.3,0.2,0.6,0.5,0.8,0.7c0.3,0.2,0.5,0.5,0.8,0.8
				c0.2,0.2,0.5,0.5,0.7,0.7c0.4,0.4,0.6,0.6,0.2,0.6c-0.2,0-0.5,0-1-0.1c-0.3-0.1-0.7-0.1-1-0.3c-0.3-0.1-0.6-0.3-0.9-0.4
				c-0.3-0.1-0.6-0.2-1-0.1c-0.3,0-0.6,0.1-1,0.3c-0.3,0.2-0.6,0.4-0.9,0.6c-0.3,0.2-0.5,0.4-0.8,0.7c-0.2,0.2-0.5,0.5-0.7,0.8
				c-0.2,0.3-0.4,0.5-0.7,0.9c-0.1,0.3,0,0.5-0.1,0.3c-0.1-0.2-0.5-0.3-0.8-0.5c-0.2-0.1-0.5-0.3-0.8-0.5c-0.2-0.2-0.5-0.3-0.8-0.5
				c-0.2-0.2-0.5-0.3-0.7-0.6c-0.2-0.2-0.3-0.5-0.5-0.8c-0.2-0.2-0.5-0.4-0.7-0.7c-0.2-0.3-0.3-0.6-0.4-0.8
				c-0.1-0.3-0.3-0.5-0.4-0.8c-0.1-0.3-0.2-0.6-0.3-0.9c-0.1-0.3-0.1-0.6-0.2-0.9c-0.1-0.3-0.2-0.6-0.2-0.9
				c-0.1-0.3-0.2-0.6-0.3-0.9c-0.1-0.3-0.2-0.6-0.3-0.9c-0.1-0.3-0.1-0.6-0.2-0.9c-0.1-0.3-0.2-0.6-0.3-0.9
				c-0.1-0.3-0.3-0.6-0.4-0.9c-0.1-0.3-0.2-0.6-0.3-0.9c-0.1-0.3-0.2-0.6-0.3-0.9c-0.1-0.3-0.2-0.6-0.3-0.9
				c-0.1-0.3-0.2-0.6-0.3-0.9c-0.1-0.3-0.3-0.6-0.4-0.9c-0.1-0.3-0.3-0.6-0.4-0.9c-0.1-0.3-0.1-0.7-0.2-0.9
				c-0.1-0.4-0.3-0.6-0.3-0.9c-0.1-0.3-0.1-0.7,0-1.1c0-0.4,0.1-0.7,0.1-1c0-0.4,0-0.8,0.1-1.1c0.1-0.4,0.3-0.7,0.4-1
				c0.2-0.3,0.3-0.6,0.5-0.9c0.1-0.2,0.4-0.4,0.7-0.8c0.2-0.2,0.5-0.4,0.8-0.7c0.2-0.2,0.5-0.5,0.8-0.7c0.3-0.2,0.5-0.4,0.8-0.6
				c0.3-0.2,0.6-0.4,0.9-0.5c0.3-0.1,0.7-0.2,1-0.3c0.3-0.1,0.7-0.2,1-0.3c0.3,0,0.7,0,1,0c0.3,0,0.7,0.1,1,0.2
				C23.5,50.2,23.8,50.5,23.8,50.8z"/>
		</g>
		<g>
			<path class="st2" d="M36.8,40.4c0-0.1-0.4-0.2-0.9-0.3c-0.3,0-0.6-0.1-1-0.1c-0.3,0-0.6,0.1-1,0.1c-0.3,0-0.6,0-0.9,0.1
				c-0.3,0-0.6,0.1-0.9,0.1c-0.3,0.1-0.6,0.2-0.9,0.3c-0.3,0.1-0.6,0.2-0.9,0.3C30,41,29.7,41,29.4,41.2c-0.3,0.2-0.6,0.3-0.8,0.5
				c-0.3,0.2-0.4,0.5-0.7,0.7c-0.2,0.2-0.5,0.4-0.7,0.6c-0.2,0.2-0.3,0.6-0.4,0.9c-0.1,0.3-0.2,0.6-0.3,0.9c-0.1,0.4-0.3,0.7-0.4,1
				c-0.1,0.4-0.2,0.7-0.2,1c0,0.4-0.1,0.7-0.1,1.1c0,0.4,0,0.7,0,1.1c0,0.3,0.2,0.7,0.2,1c0,0.3,0,0.7,0,1.1c0,0.3,0.1,0.7,0.1,1.1
				c0,0.3,0,0.7,0,1c0,0.3-0.1,0.7-0.1,1c0,0.3,0.1,0.7,0.1,1c0,0.3,0,0.7,0,1c0,0.3,0,0.7,0,1c0,0.3-0.1,0.7-0.1,1
				c0,0.3,0.1,0.7,0,1c0,0.3-0.1,0.7-0.1,1c0,0.3,0.1,0.7,0.1,1c0,0.4,0,0.7,0,1c0,0.4-0.1,0.7-0.1,1c0,0.4-0.1,0.7,0,1.1
				c0,0.4,0.1,0.7,0.1,1.1c0.1,0.4,0.2,0.7,0.3,1c0.1,0.3,0.2,0.7,0.4,1c0.1,0.3,0.1,0.7,0.3,1c0.2,0.3,0.4,0.6,0.6,0.9
				c0.2,0.3,0.5,0.5,0.8,0.7c0.2,0.2,0.4,0.4,0.6,0.7c0.2,0.2,0.4,0.4,0.6,0.6c0.3,0.2,0.5,0.4,0.8,0.5c0.3,0.1,0.6,0,0.7-0.3
				c0.1-0.3,0.2-0.7,0.3-1c0.1-0.3,0.2-0.6,0.5-0.9c0.2-0.2,0.5-0.4,0.8-0.6c0.2-0.2,0.6-0.2,0.9-0.4c0.4-0.2,0.7-0.3,1-0.4
				c0.4-0.1,0.8-0.1,1.1-0.1c0.5,0,0.8,0,1.1,0c0.5,0.1,0.6,0,0.4-0.6c-0.2-0.5-0.3-0.8-0.4-1.1c-0.2-0.3-0.3-0.6-0.6-0.9
				c-0.2-0.2-0.4-0.5-0.7-0.9c-0.2-0.3-0.3-0.6-0.5-0.8c-0.2-0.3-0.3-0.6-0.5-0.9c-0.1-0.3-0.3-0.5-0.5-0.8
				c-0.1-0.3-0.2-0.6-0.3-0.9c-0.1-0.3-0.4-0.5-0.5-0.9c-0.1-0.3-0.2-0.6-0.3-0.9c-0.1-0.3-0.3-0.6-0.4-0.9
				c-0.1-0.3-0.2-0.6-0.2-0.9c-0.1-0.3-0.1-0.7-0.1-1c-0.1-0.3-0.2-0.6-0.2-0.9c-0.1-0.3-0.2-0.6-0.3-0.9c-0.1-0.3-0.2-0.6-0.3-0.9
				c-0.1-0.3,0-0.7-0.1-1c0-0.3-0.1-0.6-0.1-1c0-0.3-0.1-0.6-0.2-1c0-0.3,0-0.7,0-1c0-0.3,0-0.7,0-1c0-0.3,0.1-0.7,0.1-1
				c0-0.3,0.1-0.7,0.1-1c0.1-0.3,0.1-0.7,0.2-1c0.1-0.3,0.1-0.7,0.2-1c0.1-0.3,0.4-0.5,0.6-0.8c0.2-0.3,0.3-0.6,0.5-0.8
				c0.2-0.2,0.5-0.5,0.7-0.7c0.3-0.2,0.6-0.3,0.9-0.4c0.3-0.1,0.6-0.2,0.9-0.3c0.3,0,0.6,0.1,1,0.1C36.7,41.3,37.2,40.6,36.8,40.4z"
				/>
		</g>
		<g>
			<path class="st2" d="M42.8,49.3c0-0.3,0-0.6-0.1-0.9c-0.1-0.3-0.2-0.5-0.4-0.8c-0.1-0.3-0.3-0.5-0.4-0.8
				c-0.1-0.2-0.2-0.5-0.3-0.9c-0.1-0.3-0.2-0.6-0.3-0.9c-0.1-0.3-0.3-0.6-0.4-0.9c-0.2-0.3-0.4-0.6-0.6-0.8
				c-0.3-0.2-0.6-0.3-0.9-0.2c-0.3,0-0.5,0.2-0.8,0.4c-0.3,0.2-0.5,0.4-0.6,0.7c-0.2,0.3-0.2,0.6-0.3,0.9c-0.1,0.3-0.1,0.6-0.1,0.9
				c0,0.3,0,0.6,0,1c0,0.3,0,0.6,0.1,1c0,0.3,0.1,0.6,0.2,0.9c0.1,0.3,0.1,0.6,0.2,0.9c0.1,0.3,0.2,0.6,0.3,0.9
				c0.1,0.3,0.2,0.6,0.3,0.9c0.1,0.3,0.2,0.7,0.3,0.9c0.2,0.4,0.4,0.7,0.6,0.8c0.3,0.2,0.6,0.3,1,0.3c0.2,0,0.6-0.1,0.9-0.3
				c0.2-0.1,0.4-0.4,0.7-0.7c0.2-0.2,0.3-0.5,0.5-0.8c0.1-0.3,0.2-0.6,0.2-0.9c0.1-0.3,0.1-0.6,0.1-0.9C42.8,50,42.8,49.6,42.8,49.3
				z"/>
		</g>
		<g>
			<path class="st2" d="M58,20c0,0.3,0,0.6,0,1c0,0.3-0.1,0.6-0.1,1c0,0.3,0.1,0.6,0.1,1c0,0.3,0,0.7,0,1c0,0.3,0,0.6,0,1
				c0,0.3,0.2,0.6,0.3,0.9c0,0.3,0.1,0.6,0.2,1c0,0.3,0.2,0.6,0.2,1c0,0.3,0,0.7,0,1c0,0.3,0,0.7,0.1,1c0,0.3-0.1,0.7,0,1
				c0,0.3,0.3,0.6,0.4,0.9c0,0.3,0.1,0.6,0.1,1c0,0.3,0,0.7,0,1c0,0.3-0.1,0.7-0.1,1c0,0.3,0,0.7,0,1c0,0.3,0.2,0.7,0.2,1
				c0,0.3-0.2,0.7-0.2,1c0,0.3,0.1,0.7,0.1,1c0,0.3-0.1,0.6-0.1,1c0.1,0.3,0,0.6,0,1c0,0.3,0,0.6,0,1c0,0.3,0.2,0.6,0.2,1
				c0,0.3,0,0.6,0,1c0,0.3,0.3,0.6,0.3,1c0,0.3-0.1,0.6-0.1,1c0,0.3,0.1,0.6,0.1,1c0,0.3-0.1,0.6-0.1,1c0,0.3,0,0.6,0,1
				c0,0.3-0.3,0.6-0.3,1c0,0.3,0,0.6,0,1c0,0.3-0.1,0.6-0.2,1c0,0.3,0.2,0.7,0.2,1c0,0.3,0,0.7,0,1c0,0.3-0.1,0.6-0.1,1
				c0,0.3,0.2,0.7,0.2,1c0,0.3-0.1,0.6-0.1,1c0,0.3-0.3,0.6-0.3,1c0,0.3-0.1,0.7-0.1,1c0,0.3,0.3,0.7,0.3,1c0,0.3-0.3,0.7-0.3,1
				c0,0.4,0.2,0.7,0.2,1c0,0.3,0.1,0.6,0.1,1c0,0.3-0.2,0.7-0.2,1c0,0.3,0,0.7,0,1c0,0.3,0,0.7,0,1c0,0.3,0,0.7,0.1,1
				c0,0.3,0.3,0.7,0.3,1c0,0.3-0.2,0.7-0.1,1c0,0.3,0.2,0.7,0.2,1c0,0.3-0.1,0.7-0.1,1c0,0.3-0.2,0.7-0.2,1c0,0.3,0.2,0.7,0.2,1
				c0,0.3,0,0.7,0,1c0,0.3,0,0.7,0,1c0,0.3-0.2,0.7-0.2,1c0,0.3,0.1,0.7,0,1.1c-0.1-0.2-0.2-0.6-0.4-1c-0.1-0.2-0.5-0.4-0.7-0.7
				c-0.2-0.3-0.3-0.6-0.5-0.9c-0.2-0.3-0.3-0.6-0.4-0.9c-0.2-0.3-0.1-0.7-0.3-1c-0.2-0.3-0.3-0.6-0.4-0.9c-0.1-0.3-0.5-0.5-0.6-0.8
				c-0.1-0.3-0.4-0.5-0.6-0.8c-0.1-0.3,0-0.7-0.1-1c-0.1-0.3-0.3-0.6-0.4-0.9c-0.1-0.3-0.4-0.5-0.5-0.9c-0.1-0.3-0.1-0.7-0.2-1
				c-0.1-0.3-0.2-0.6-0.3-0.9c-0.1-0.3-0.3-0.6-0.4-0.9c-0.1-0.3-0.1-0.7-0.2-1c-0.1-0.3-0.3-0.6-0.4-0.9c-0.1-0.3-0.3-0.6-0.4-0.9
				c-0.1-0.3-0.1-0.6-0.2-0.9c-0.1-0.3,0-0.7-0.2-1c-0.1-0.3-0.4-0.6-0.5-0.8c-0.2-0.3-0.4-0.5-0.6-0.8c-0.2-0.3-0.5-0.4-0.8-0.7
				c-0.2-0.2-0.4-0.5-0.6-0.8c-0.2-0.2-0.4-0.5-0.7-0.8c-0.2-0.2-0.5-0.3-0.8-0.5c-0.1-0.3-0.2-0.6-0.3-0.9c0-0.3,0-0.7,0-1
				c0-0.3-0.1-0.7-0.1-1c0-0.3-0.2-0.6-0.3-1c0-0.3,0.2-0.7,0.1-1c0-0.3-0.4-0.6-0.4-1c0-0.3,0.1-0.7,0.1-1c0-0.3-0.2-0.7-0.2-1
				c0-0.3,0.1-0.7,0-1c0-0.3,0.3-0.7,0.3-1c0-0.4,0-0.7,0-1c0-0.4-0.2-0.7-0.1-1c0-0.4-0.1-0.7-0.1-1c0.1-0.5,0.3-0.8,0.5-0.9
				c0.2-0.1,0.5-0.2,0.6-0.5c0.1-0.2-0.1-0.4-0.1-0.8c-0.1-0.6-0.3-0.6-0.4-1c-0.1-0.2,0-0.6-0.1-1.1c0-0.3,0.1-0.7,0.1-1
				c0-0.3,0-0.7,0-1c0-0.3-0.1-0.7-0.1-1c0-0.3-0.2-0.7-0.2-1c0-0.4,0.3-0.7,0.3-1c0-0.4-0.3-0.7-0.3-1c0-0.4-0.1-0.7-0.1-1
				c0-0.4,0.1-0.7,0.1-1c0-0.4-0.2-0.7-0.2-1c0-0.4,0.3-0.7,0.3-1c0-0.4-0.1-0.7-0.1-1c0-0.4,0-0.7,0-1c0-0.7,0.1-0.5,0.1-1
				c0-0.6,0-0.9,0.1-1.1c0.3-0.5,0.6-0.4,0.7-0.8c0.1-0.5-0.3-0.3-0.5-1c-0.1-0.3-0.1-0.7-0.2-1.2c0-0.2-0.2-0.5-0.2-0.9
				c0-0.3,0.1-0.6,0.1-1c0-0.3,0-0.6,0-1c0-0.3-0.2-0.6-0.2-1c0-0.3,0-0.6,0-1c0-0.3,0.2-0.6,0.2-1c0-0.3-0.3-0.6-0.3-1
				c0-0.3,0.3-0.6,0.3-1c0-0.3-0.3-0.6-0.3-1c0-0.3,0.1-0.6,0.1-1c0-0.3,0.1-0.6,0.1-1c0-0.3,0-0.6,0-1c0-0.3-0.1-0.7-0.1-1
				c0-0.3,0.2-0.6,0.3-0.9c0.1-0.3,0.2-0.6,0.3-0.9c0.2-0.3,0.4-0.5,0.6-0.8c0.2-0.3,0.3-0.6,0.6-0.8c0.3-0.2,0.6-0.2,0.9-0.4
				c0.3-0.1,0.6-0.2,0.9-0.3c0.3-0.1,0.6,0,0.9-0.1c0.3,0,0.7-0.3,1-0.2c0.3,0.1,0.6,0.4,0.9,0.5c0.3,0.1,0.7,0.1,1,0.3
				c0.3,0.2,0.6,0.3,0.9,0.5c0.2,0.2,0.5,0.5,0.7,0.8c0.2,0.2,0.3,0.6,0.5,0.9c0.2,0.3,0.2,0.6,0.3,0.9c0.1,0.3,0.4,0.5,0.5,0.8
				c0.1,0.3,0.1,0.6,0.2,1c0.1,0.3,0.1,0.6,0.2,1c0,0.3,0.1,0.6,0.1,1c0,0.3,0,0.6,0,1c0,0.4,0.1,0.7,0.1,1c0,0.4-0.2,0.7-0.2,1
				c0,0.4,0.3,0.7,0.3,1c0,0.4-0.3,0.7-0.3,1c0,0.4,0.2,0.7,0.2,1c0,0.4-0.2,0.7-0.2,1c0,0.4,0.2,0.7,0.2,1c0,0.4-0.3,0.7-0.4,1
				C57.8,19.4,58,19.6,58,20z"/>
		</g>
	</g>
</g>
</svg>
