<?xml version="1.0" encoding="utf-8"?>
<!-- Generator: Adobe Illustrator 25.0.0, SVG Export Plug-In . SVG Version: 6.00 Build 0)  -->
<svg version="1.1" id="レイヤー_1" xmlns="http://www.w3.org/2000/svg" xmlns:xlink="http://www.w3.org/1999/xlink" x="0px"
	 y="0px" viewBox="0 0 572.19 69.85" style="enable-background:new 0 0 572.19 69.85;" xml:space="preserve">
<style type="text/css">
	.st0{fill:#E83828;}
</style>
<g>
	<path class="st0" d="M0,65.02c1.08-2.38,2.52-11.88,2.66-14.26c12.6,2.02,38.88,1.44,49.18,0.36c1.8-1.01,4.68-3.74,5.4-5.18
		c1.94,3.24,5.54,9.36,8.06,11.52c-2.52,2.3-6.12,7.7-8.06,10.8c-2.02-2.02-3.6-2.88-5.62-3.6C42.63,63.73,9.72,63.73,0,65.02z
		 M4.82,24.34c0.94-2.3,2.38-11.88,2.52-14.19c12.82,1.8,32.4,1.22,40.18,0.36c1.94-1.08,4.32-3.6,5.18-4.9
		c1.8,3.24,5.98,10.08,8.5,12.24c-2.52,2.38-6.12,6.84-8.14,10.08c-1.94-1.94-3.6-3.24-5.54-4.1C38.31,22.9,14.54,23.11,4.82,24.34z
		"/>
	<path class="st0" d="M106.92,24.91c-0.36,5.18,0.36,13.46,1.44,18.87l-11.02,0.94c0.58-2.16-0.72-15.7-1.44-19.08
		c-0.5-0.36-1.22-0.94-2.16-1.44c-0.5,0.5-1.08,1.44-1.58,1.94c-0.36,5.26,0.5,13.54,1.44,18.94l-10.66,0.86
		c0.58-2.16-0.5-15.48-1.44-19.08c-0.72-0.72-2.3-1.58-3.74-2.16c2.3-1.08,5.18-3.38,6.84-5.18c1.94,1.44,5.9,2.88,9,3.6
		c1.94-1.08,4.32-3.24,5.54-4.9c1.44,1.08,6.7,3.24,10.3,3.96C108.51,22.54,107.43,23.83,106.92,24.91z M86.91,65.89
		c7.78-1.44,15.48-3.24,19.66-7.34c3.74-3.46,5.76-8.06,6.84-14.55c0.72-5.62,1.58-13.9,1.22-17.5c-1.08-1.08-2.66-2.52-4.32-2.88
		c3.6-1.58,7.42-3.74,9.58-5.76c2.3,2.16,7.2,5.4,10.8,6.84c-1.3,0.72-2.74,1.8-3.1,2.88c-0.86,2.02-1.58,6.7-2.66,14.76
		c-2.88,23.19-5.98,24.48-37.66,25.92L86.91,65.89z"/>
	<path class="st0" d="M157.97,53.5c-3.24,4.32-8.71,7.63-15.27,8.71l-1.08-1.08c3.31-4.39,6.55-13.1,8.71-20.74l-3.24-3.31
		c3.24-1.08,6.55-2.16,8.71-5.4c2.16,2.16,7.63,5.4,12.03,6.48C163.44,40.4,164.52,44.72,157.97,53.5z M209.31,21.82
		c-3.31,2.23-6.55,6.55-7.71,8.71c-2.16-1.08-3.24-1.08-5.4-2.16c-2.23,0-7.63,0-13.1,0c0,12.02,0,25.13,0,30.53
		c1.08,2.23,2.16,4.39,4.39,5.47c-4.39,1.08-8.78,3.31-10.94,5.47c-3.24-3.31-6.55-4.39-8.71-4.39c-2.23,0-5.47,2.23-8.71,3.31
		l-2.23-3.31c6.55-2.16,9.87-3.24,10.95-8.71c1.08-5.47,1.08-17.43,1.08-28.37c-9.79,0-19.66,0-23.98,1.08
		c1.08-2.16,2.16-10.87,2.16-13.1c5.47,0,13.1,1.15,21.82,1.15c0-2.23,0-4.39,0-6.55c-2.16-1.08-3.31-2.23-5.47-3.31
		c4.39-1.08,8.71-3.24,10.95-4.32c2.16,1.08,9.79,4.32,14.18,5.4c-1.08,1.15-4.39,2.23-4.39,4.39c-1.08,0-1.08,3.24-1.08,4.39
		c5.47,0,10.87,0,13.1-1.15h2.16c-4.39-3.24-5.47-5.4-5.47-7.63c-1.08-2.16,2.23-4.32,7.63-8.71c5.47,3.31,7.63,5.47,7.63,8.71
		c0,2.23-2.16,4.39-5.4,7.63C204.92,18.58,207.08,20.74,209.31,21.82z M197.28,31.68c2.16,7.63,6.55,15.27,13.11,21.82
		c-3.31,2.16-7.63,5.4-9.87,7.63c-9.79-8.78-9.79-17.5-15.26-22.97C188.57,37.08,193.97,33.84,197.28,31.68z M200.52,5.47
		c-3.24,1.08-3.24,2.16-3.24,3.24c0,1.15,1.08,2.23,3.24,4.39c2.23-1.08,3.31-3.24,3.31-4.39C203.84,7.63,202.76,6.55,200.52,5.47z"
		/>
	<path class="st0" d="M229.68,49.9c9.36,1.22,25.35,0.22,30.6-2.66c5.18-2.74,8.28-7.78,9.36-14.4c1.08-5.76,1.44-13.68,0.86-19.8
		l5.04,0.5c-0.5,5.62-0.86,14.26-1.44,22.32c-1.58,22.32-3.02,28.23-25.56,28.95c-15.62,0.36-18.72,0.22-22.47,3.46
		c-1.8-5.4-3.82-8.86-5.76-11.74c2.3-2.88,3.6-6.77,5.4-11.45C226.44,46.88,228.6,48.82,229.68,49.9z M221.9,22.9
		c0.94-2.52,2.02-11.67,2.02-14.04c6.48,0.58,15.48,0.94,21.6,0.22c1.58-1.08,3.75-4.32,4.46-5.76c1.8,3.24,5.76,7.92,9,11.67
		c-2.16,2.52-6.48,7.92-8.07,11.16c-2.02-1.8-3.24-3.24-5.26-3.96C239.4,21.82,230.04,21.82,221.9,22.9z"/>
	<path class="st0" d="M353.67,40.18c-1.94,2.38-4.82,7.06-6.48,10.08c-1.8-1.8-3.24-2.52-5.18-3.02c-2.52-0.22-7.42,0-13.54,0.36
		c0.58,8.57,1.44,16.49,2.16,20.81l-15.84,0.72c0.36-4.68,0.22-12.24-0.14-20.67c-10.08,0.72-20.16,1.8-25.92,2.52
		c0.86-2.16,1.58-10.58,1.58-12.75c5.26,0.5,14.04,0.36,23.4-0.22c-0.36-3.38-0.5-6.84-0.72-10.08c-8.79,0.72-17.07,1.44-22.68,2.16
		c0.94-2.16,1.66-10.58,1.66-12.75c5.04,0.5,12.24,0.5,19.95,0.14c-0.14-1.8-0.36-3.38-0.5-5.04c-1.3-1.08-3.6-2.52-5.76-3.02
		c3.24-1.8,8.06-3.96,10.08-6.84c2.3,1.44,11.3,3.96,15.27,4.46c-1.22,1.3-3.6,3.82-4.1,5.26c-0.22,1.22-0.22,2.66-0.22,4.32
		c5.04-0.36,9.22-0.94,12.1-1.3c1.58-1.08,3.96-3.38,4.68-4.68c1.8,2.88,4.82,8.28,7.2,10.08c-2.16,2.16-4.54,6.34-6.12,9.22
		c-2.02-1.66-3.46-2.52-5.26-3.1c-2.52,0-6.98,0-12.24,0.36c0,3.1,0.22,6.48,0.36,9.94c5.76-0.58,10.44-1.08,13.32-1.66
		c1.8-1.08,4.18-3.38,4.9-4.68C347.41,33.7,351.37,38.38,353.67,40.18z M331.56,6.55c1.8-0.72,5.18-4.32,6.62-6.34
		c0.72,1.66,3.6,4.54,5.76,5.98c1.8-1.3,4.32-4.18,5.4-5.76c0.94,1.58,4.18,4.82,6.34,6.12c-1.66,0.86-5.62,4.82-6.34,6.26
		c-0.72-1.58-3.6-4.68-5.54-5.9c-1.8,1.22-5.04,4.68-5.62,5.9C337.32,11.02,333.36,7.42,331.56,6.55z"/>
	<path class="st0" d="M418.83,25.99c-1.94,1.22-4.46,2.52-4.68,5.9c-0.36,6.7-1.08,29.16-0.36,36.51h-13.47
		c0.14-0.72,0.14-1.58,0.14-2.52c-11.3-0.14-27.15-0.14-32.19,0.36c0.72-2.66,1.58-8.42,1.8-10.94c6.48,0.86,20.52,1.22,30.96,1.08
		c0.14-2.88,0.36-5.76,0.36-8.42c-9.72-0.36-25.56-0.36-31.18,0.36c0.72-2.74,1.65-7.92,1.8-11.16c7.42,1.22,20.74,1.44,29.52,1.08
		c0-0.58,0-0.94,0-1.3v-1.94c0-2.16-0.14-3.46-0.72-3.96c-1.08-0.72-3.6-0.58-12.75-0.58c-5.62,0-13.32-0.14-19.08,0.36
		c0.86-2.3,1.8-7.92,2.16-10.94c8.28,1.22,27.15,1.22,34.71,0.36c1.44-0.22,3.24-1.8,5.26-4.18
		C412.71,18.79,416.67,23.98,418.83,25.99z"/>
	<path class="st0" d="M438.12,44.72c-1.8-2.88-5.26-9.58-7.56-11.74c2.3-1.94,5.9-7.7,7.56-10.8c0.86,1.3,3.24,3.82,5.04,4.9
		c9.14,0.86,44.07,1.22,55.59-0.58c-0.72,2.88-2.16,11.74-2.52,15.34c-8.78-1.3-44.79-1.3-53.07-0.36
		C441.36,41.98,439.92,42.92,438.12,44.72z"/>
	<path class="st0" d="M564.63,15.7c1.66,3.82,3.46,7.06,5.4,9.94c-1.94,3.02-3.24,5.9-4.83,9.72c-2.02-1.8-2.88-2.74-4.9-3.46
		c-0.86,0-2.16,0-3.75-0.14c-0.22,3.38-0.22,6.84-0.22,9.72c0,24.63-4.68,23.55-37.59,27.15l-0.72-2.74
		c20.88-4.82,24.84-9.36,25.71-29.67c0-1.44,0-3.02,0-4.68c-5.04-0.14-10.8-0.14-16.35,0c-0.22,5.98-0.22,11.88,0.36,15.34h-13.9
		c0.36-1.44,0.72-8.14,0.94-15.12c-4.9,0.14-9,0.36-11.16,0.72c1.08-2.16,2.16-11.16,2.3-13.32c2.38,0.36,5.4,0.5,9,0.86
		c0-2.66-0.14-5.4-0.36-6.48c-1.58-1.08-2.16-2.3-5.18-3.24c3.02-0.86,7.2-3.74,9.36-5.9c4.46,2.52,9.72,4.46,13.32,5.4
		c-1.08,0.5-2.52,2.16-3.6,3.38c-0.22,1.66-0.36,4.54-0.58,7.2c5.26,0,10.8,0,15.7,0c-0.22-2.88-0.22-5.9-0.58-7.7
		c-1.58-1.08-2.88-2.02-5.18-2.52c3.38-1.44,7.56-4.54,9.87-7.2c1.44,0.72,3.24,1.58,5.04,2.52c1.8-1.44,3.96-3.6,4.9-5.04
		c0.72,1.22,2.3,3.02,4.1,4.46c1.66-1.22,3.24-3.24,4.18-4.46c0.86,1.8,4.1,4.82,6.26,6.26c-1.58,0.72-5.54,4.68-6.26,6.12
		c-0.58-1.08-2.38-3.02-4.18-4.46c-0.14,0.14-0.36,0.36-0.5,0.36l0.36,0.14c-1.44,1.08-2.74,2.16-3.96,4.18
		c-0.22,1.44-0.36,4.32-0.58,6.84c1.3,0,2.38-0.22,3.24-0.22C562.11,18.58,563.91,16.99,564.63,15.7z"/>
</g>
</svg>
