<?xml version="1.0" encoding="utf-8"?>
<!-- Generator: Adobe Illustrator 25.0.0, SVG Export Plug-In . SVG Version: 6.00 Build 0)  -->
<svg version="1.1" id="レイヤー_1" xmlns="http://www.w3.org/2000/svg" xmlns:xlink="http://www.w3.org/1999/xlink" x="0px"
	 y="0px" viewBox="0 0 7.45 16.99" style="enable-background:new 0 0 7.45 16.99;" xml:space="preserve">
<style type="text/css">
	.st0{fill:#FFFFFF;}
	.st1{fill:#E83828;}
</style>
<g>
	<line class="st0" x1="3.51" y1="0" x2="3.51" y2="12.13"/>
	<g>
		<g>
			<path class="st1" d="M2.92,5.22L2.91,5.56c-0.34-0.21-1.57,0.27-1.4,1.27C0.84,6.69,0.43,7.26,0.6,7.91
				c0.14,0.56,0.2,0.88,0.02,1.85c-0.22,1.21-0.59,2.59,0.24,4.02c0.07,0.12,0,0.27-0.08,0.31c-0.16,0.07-0.62,0.02-0.63,0.41v1.45
				c0,0.52,0.76,0.93,3.17,0.93c2.51-0.01,3.49-0.04,3.5-1.07c0.01-1.02,0-1.3,0-1.3c-0.01-0.32-0.22-0.38-0.37-0.43
				c-0.08-0.03-0.12-0.15-0.08-0.23c0.06-0.13,0.61-1.42,0.73-2.53c0.11-1.03,0.42-1.43,0.31-2.13C7.29,8.35,7.38,5.69,7.39,4.9
				c0.01-0.78-0.24-2.03-0.2-3.69c0.04-1.58-1.8-1.59-1.71-0.17C5.54,2.17,5.4,2.21,5.45,2.6c0.08,0.68,0,1.43-0.03,1.96
				C5.4,4.8,5.47,5.07,5.4,5.78C5.3,5.39,5.19,5.37,4.94,4.81C4.53,4,2.97,4.47,2.92,5.22z"/>
			<path class="st0" d="M3.57,14.8c-1,0.03-2.73-0.17-2.89-0.22c-0.15-0.05-0.24,0.06-0.22,0.28c0.01,0.15,0.01,0.93,0.01,0.93
				c0,0.34,0.35,0.76,3.02,0.76c2.76-0.02,3.11-0.13,3.11-0.94l-0.03-1.01c-0.01-0.06-0.05-0.11-0.11-0.14
				C6.3,14.37,6.1,14.73,3.57,14.8z"/>
			<path class="st0" d="M3.3,12.44c-0.04,0.04-0.12,0.06-0.16,0.04c-0.18-0.09-0.04-0.3-0.03-0.45c0.01-0.13,0.13-0.83-0.04-1.09
				c-0.17-0.26-0.49-0.77-1.19-0.94C1.76,9.96,1.36,9.74,1.26,9.41c-0.08-0.24-0.32-0.2-0.34,0c-0.05,0.54-0.28,0.71-0.27,2.39
				c0.07,1.34,0.33,2.6,2.12,2.69c0.98,0.03,2.36-0.01,2.85-0.16c0.5-0.15,0.5-0.56,0.69-0.92c0.64-1.5,0.6-2.5,0.79-3.32
				C7.16,9.77,7.29,9.52,7,9.1C6.37,8.22,6.16,7.15,5.98,6.89C5.86,6.71,5.8,6.66,5.74,6.63C5.63,6.58,5.62,6.4,5.49,6.24
				c-0.07-0.1-0.11-0.15-0.16-0.26c-0.19,0.15,0.02,0.28-0.4,0.49C4.84,6.51,4.67,6.46,4.6,6.44c-0.17-0.1-0.2-0.46-0.22-0.61
				C4.35,5.71,4.33,5.58,4.31,5.45C4.24,5.11,4.59,5,4.47,4.99c-0.63-0.06-0.5,0.78-0.45,1.06c0.02,0.28,0.16,0.5,0.23,0.78
				c0.09,0.12,0.11,0.76,0.56,0.75c0.07,0.01,0.23,0,0.16,0.19C4.91,7.93,4.92,8.65,5.13,8.75c0.09,0.05,0.16,0.1,0.2,0.2
				C5.38,9.06,5.32,9.12,5.2,9.1C5.05,9.08,4.85,9.1,4.8,9.31C4.75,9.49,4.75,9.58,4.83,9.71c0.07,0.14,0.24,0.4,0.23,0.52
				c-0.03,0.1-0.11,0.17-0.21-0.06c-0.1-0.2-0.43-0.45-0.81-0.1c-0.56,0.52-0.61,0.35-0.67,2.18C3.37,12.34,3.35,12.39,3.3,12.44z"
				/>
			<path class="st0" d="M3.27,9.44c0.31,0.24,0.41,0.43,0.71,0.2c0.06-0.03,0.06-0.11,0-0.34C3.95,9.18,3.47,8.78,3.15,9.13
				C3.1,9.21,3.07,9.31,3.27,9.44z"/>
			<path class="st0" d="M2.31,9.82c-0.05,0.15,0.63,0.38,0.68,0.37c0.06-0.02,0.13-0.03,0.16-0.32c0-0.13-0.26-0.38-0.55-0.35
				C2.4,9.54,2.32,9.8,2.31,9.82z"/>
			<path class="st0" d="M4.02,8.62c0.14,0.13,0.41,0.42,0.55,0.34c0.17-0.1,0.26-0.21,0.15-0.51c-0.07-0.2-0.4-0.58-0.79-0.17
				C3.87,8.39,3.83,8.44,4.02,8.62z"/>
			<path class="st0" d="M1.52,7.09C0.65,6.88,0.71,7.84,0.94,8.23C1.31,8.86,1.4,9.4,1.65,9.61c0.14,0.12,0.5,0.3,0.52,0.12
				c0.02-0.16,0.15-0.3,0.22-0.38c0.03-0.03,0.27,0.01,0.27-0.04C2.65,9.28,2.4,9.34,2.11,8.74C1.99,8.48,1.76,7.92,1.72,7.72
				C1.69,7.57,1.61,7.42,1.58,7.15C1.57,7.1,1.54,7.09,1.52,7.09z"/>
			<path class="st0" d="M2.9,5.92c0.04,0.66,0,0.93-0.01,1.09C2.81,7.82,3.12,8.19,3.36,8.36C3.51,8.53,3.64,8.57,3.75,8.7
				c0.08,0.1,0.26,0.22-0.01,0.15C3.6,8.82,3.51,8.71,3.28,8.8C3.15,8.88,3.06,8.9,2.91,9.15C2.9,9.18,2.9,9.21,2.89,9.19
				C2.82,9.11,2.4,9.04,2.22,8.35c-0.23-0.91-0.46-1.31-0.49-1.5c-0.01-0.03-0.01-0.08,0-0.13c0.01-0.28,0.06-0.38,0.13-0.47
				c0.07-0.09,0.46-0.55,0.95-0.43C2.86,5.85,2.9,5.88,2.9,5.92z"/>
			<path class="st0" d="M4.43,4.69c0-0.06-0.98-0.17-1.23,0.51C3.08,5.54,3.17,5.72,3.15,6.06c0.03,0.57-0.01,1.04-0.01,1.27
				c0.01,0.34,0.08,0.61,0.28,0.8c0.1,0.09,0.26,0.3,0.31,0.16c0.05-0.14,0.08-0.23,0.3-0.35c0.3-0.16,0.5,0.05,0.42-0.13
				c-0.07-0.16-0.07-0.17-0.2-0.34C3.8,6.81,3.31,4.75,4.35,4.8C4.42,4.79,4.48,4.72,4.43,4.69z"/>
			<path class="st0" d="M5.15,5.74c0.01-0.12-0.07-0.21-0.1-0.29C4.99,5.32,4.9,4.86,4.64,5.07C4.37,5.29,4.6,5.92,4.67,6.14
				c0.04,0.09,0.1,0.13,0.19,0.13C4.94,6.27,5.15,6.21,5.15,5.74z"/>
			<path class="st0" d="M6.94,2.28C6.93,2.79,7.2,3.96,7.08,4.58c0.14,0.76-0.01,2.07,0.03,2.51c0,0.37,0.08,1.2,0,1.78
				c-0.07-0.16-0.52-0.76-0.76-1.7C6.28,6.85,6.13,6.59,5.77,6.33c-0.11-0.65-0.15-1.6-0.06-1.65c0.04-0.02,0.09-0.03,0.07-0.15
				C5.76,4.43,5.73,4.48,5.72,4.28C5.7,3.25,5.71,2.71,5.71,2.71c0.01-0.23,0.1-0.15,0.12-0.23C5.85,2.4,5.78,2.46,5.75,2.22
				C5.74,2.09,5.69,1.76,5.7,0.85c-0.02-0.81,1.2-0.99,1.25,0.37C7,2.15,6.91,2.14,6.94,2.28z"/>
		</g>
	</g>
</g>
</svg>
